<svg width="1501" height="499" viewBox="0 0 1501 499" fill="none" xmlns="http://www.w3.org/2000/svg">
<path d="M232.924 350.848C219.591 350.848 209.488 347.155 202.617 339.771C195.745 332.386 192.309 322.335 192.309 309.617C192.309 303.155 193.181 297.36 194.924 292.232C196.77 287.001 199.334 282.591 202.617 279.001C206.001 275.309 210.052 272.54 214.77 270.694C219.591 268.745 224.976 267.771 230.924 267.771C236.873 267.771 242.206 268.745 246.924 270.694C251.642 272.54 255.642 275.207 258.924 278.694C262.206 282.181 264.719 286.437 266.463 291.463C268.309 296.386 269.232 301.925 269.232 308.078V314.848H214.924V316.232C214.924 321.36 216.514 325.514 219.693 328.694C222.873 331.771 227.54 333.309 233.693 333.309C238.411 333.309 242.463 332.437 245.847 330.694C249.232 328.848 252.155 326.437 254.617 323.463L266.924 336.848C263.847 340.642 259.54 343.925 254.001 346.694C248.463 349.463 241.437 350.848 232.924 350.848ZM231.078 284.078C226.155 284.078 222.206 285.617 219.232 288.694C216.36 291.668 214.924 295.719 214.924 300.848V302.078H246.924V300.848C246.924 295.617 245.488 291.514 242.617 288.54C239.847 285.566 236.001 284.078 231.078 284.078ZM273.787 313.001V291.155H323.018V313.001H273.787ZM378.22 351.217C360.989 351.217 348.189 345.432 339.82 333.863C331.573 322.171 327.45 305.74 327.45 284.571C327.45 263.401 331.573 247.032 339.82 235.463C348.189 223.771 360.989 217.924 378.22 217.924C384.866 217.924 390.712 218.847 395.758 220.694C400.927 222.417 405.358 224.878 409.05 228.078C412.743 231.278 415.758 235.155 418.097 239.709C420.558 244.263 422.466 249.371 423.82 255.032L397.973 261.309C397.235 258.232 396.373 255.401 395.389 252.817C394.404 250.232 393.112 248.017 391.512 246.171C390.035 244.324 388.127 242.909 385.789 241.924C383.573 240.817 380.866 240.263 377.666 240.263C370.158 240.263 364.804 243.217 361.604 249.124C358.527 254.909 356.989 262.971 356.989 273.309V295.832C356.989 306.171 358.527 314.294 361.604 320.201C364.804 325.986 370.158 328.878 377.666 328.878C384.066 328.878 388.681 326.909 391.512 322.971C394.466 319.032 396.62 313.986 397.973 307.832L423.82 314.109C422.466 319.771 420.558 324.878 418.097 329.432C415.758 333.986 412.743 337.925 409.05 341.248C405.358 344.448 400.927 346.909 395.758 348.632C390.712 350.355 384.866 351.217 378.22 351.217ZM471.194 351.217C463.809 351.217 457.163 350.109 451.255 347.894C445.348 345.555 440.301 342.232 436.117 337.925C432.055 333.617 428.917 328.386 426.701 322.232C424.486 316.078 423.378 309.125 423.378 301.371C423.378 293.617 424.486 286.663 426.701 280.509C428.917 274.355 432.055 269.124 436.117 264.817C440.301 260.509 445.348 257.248 451.255 255.032C457.163 252.694 463.809 251.524 471.194 251.524C478.578 251.524 485.224 252.694 491.132 255.032C497.04 257.248 502.025 260.509 506.086 264.817C510.271 269.124 513.471 274.355 515.686 280.509C517.901 286.663 519.009 293.617 519.009 301.371C519.009 309.125 517.901 316.078 515.686 322.232C513.471 328.386 510.271 333.617 506.086 337.925C502.025 342.232 497.04 345.555 491.132 347.894C485.224 350.109 478.578 351.217 471.194 351.217ZM471.194 330.909C477.348 330.909 482.148 329.001 485.594 325.186C489.04 321.371 490.763 315.955 490.763 308.94V293.801C490.763 286.786 489.04 281.371 485.594 277.555C482.148 273.74 477.348 271.832 471.194 271.832C465.04 271.832 460.24 273.74 456.794 277.555C453.348 281.371 451.624 286.786 451.624 293.801V308.94C451.624 315.955 453.348 321.371 456.794 325.186C460.24 329.001 465.04 330.909 471.194 330.909ZM524.291 327.771H553.46V233.617H524.291V212.386H580.783V327.771H609.952V349.001H524.291V327.771ZM665.634 351.217C649.634 351.217 637.511 346.786 629.265 337.925C621.019 329.063 616.896 317.001 616.896 301.74C616.896 293.986 617.942 287.032 620.034 280.878C622.25 274.601 625.327 269.309 629.265 265.001C633.327 260.571 638.188 257.248 643.85 255.032C649.634 252.694 656.096 251.524 663.234 251.524C670.373 251.524 676.773 252.694 682.434 255.032C688.096 257.248 692.896 260.448 696.834 264.632C700.773 268.817 703.788 273.924 705.88 279.955C708.096 285.863 709.204 292.509 709.204 299.894V308.017H644.034V309.678C644.034 315.832 645.942 320.817 649.757 324.632C653.573 328.325 659.173 330.171 666.557 330.171C672.219 330.171 677.08 329.125 681.142 327.032C685.204 324.817 688.711 321.925 691.665 318.355L706.434 334.417C702.742 338.971 697.573 342.909 690.927 346.232C684.28 349.555 675.85 351.217 665.634 351.217ZM663.419 271.094C657.511 271.094 652.773 272.94 649.203 276.632C645.757 280.201 644.034 285.063 644.034 291.217V292.694H682.434V291.217C682.434 284.94 680.711 280.017 677.265 276.448C673.942 272.878 669.327 271.094 663.419 271.094ZM766.362 349.001C756.516 349.001 749.193 346.417 744.393 341.248C739.593 336.078 737.193 329.494 737.193 321.494V274.971H711.347V253.74H728.147C732.208 253.74 735.101 252.94 736.824 251.34C738.547 249.74 739.408 246.786 739.408 242.478V220.14H764.516V253.74H801.624V274.971H764.516V327.771H801.624V349.001H766.362ZM889.429 349.001C883.767 349.001 879.213 347.586 875.767 344.755C872.321 341.801 870.29 337.617 869.675 332.201H868.752C867.029 338.478 863.583 343.217 858.413 346.417C853.367 349.617 847.152 351.217 839.767 351.217C830.536 351.217 823.09 348.755 817.429 343.832C811.89 338.786 809.121 331.771 809.121 322.786C809.121 312.817 812.752 305.432 820.013 300.632C827.275 295.832 837.921 293.432 851.952 293.432H867.275V288.632C867.275 282.971 865.921 278.724 863.213 275.894C860.629 272.94 856.198 271.463 849.921 271.463C844.136 271.463 839.459 272.571 835.89 274.786C832.321 277.001 829.244 279.894 826.659 283.463L811.706 270.171C814.906 264.755 819.89 260.324 826.659 256.878C833.552 253.309 842.352 251.524 853.059 251.524C866.106 251.524 876.259 254.54 883.521 260.571C890.906 266.478 894.598 275.463 894.598 287.524V329.248H905.121V349.001H889.429ZM850.106 333.309C854.906 333.309 858.967 332.14 862.29 329.801C865.613 327.463 867.275 324.078 867.275 319.648V308.201H852.69C841.49 308.201 835.89 311.955 835.89 319.463V323.155C835.89 326.478 837.183 329.001 839.767 330.725C842.352 332.448 845.798 333.309 850.106 333.309ZM1044.73 351.217C1033.9 351.217 1024.48 349.432 1016.48 345.863C1008.48 342.294 1002.02 337.432 997.1 331.278L1013.16 313.555C1017.84 318.725 1022.95 322.54 1028.48 325.001C1034.15 327.463 1039.87 328.694 1045.65 328.694C1052.3 328.694 1057.35 327.217 1060.79 324.263C1064.24 321.309 1065.96 317.063 1065.96 311.525C1065.96 306.971 1064.61 303.524 1061.9 301.186C1059.32 298.848 1054.88 297.186 1048.61 296.201L1035.13 293.986C1023.56 292.017 1015.19 287.771 1010.02 281.248C1004.85 274.601 1002.27 266.54 1002.27 257.063C1002.27 244.632 1006.33 235.032 1014.45 228.263C1022.58 221.371 1033.96 217.924 1048.61 217.924C1058.58 217.924 1067.25 219.463 1074.64 222.54C1082.02 225.617 1087.99 229.801 1092.55 235.094L1076.85 252.632C1073.41 248.817 1069.35 245.863 1064.67 243.771C1059.99 241.555 1054.7 240.448 1048.79 240.448C1036.36 240.448 1030.15 245.555 1030.15 255.771C1030.15 260.201 1031.5 263.524 1034.21 265.74C1037.04 267.955 1041.59 269.617 1047.87 270.724L1061.35 273.124C1071.81 274.971 1079.87 278.909 1085.53 284.94C1091.19 290.971 1094.02 299.094 1094.02 309.309C1094.02 315.34 1092.98 320.94 1090.88 326.109C1088.79 331.155 1085.65 335.586 1081.47 339.401C1077.28 343.094 1072.12 345.986 1065.96 348.078C1059.93 350.171 1052.85 351.217 1044.73 351.217ZM1181.64 220.14V313.001C1181.64 318.786 1180.6 324.078 1178.5 328.878C1176.54 333.555 1173.64 337.555 1169.83 340.878C1166.14 344.201 1161.64 346.786 1156.35 348.632C1151.06 350.355 1145.15 351.217 1138.63 351.217C1125.46 351.217 1115.24 347.955 1107.98 341.432C1100.84 334.786 1096.29 326.109 1094.32 315.401L1120.54 310.048C1121.52 315.586 1123.37 320.078 1126.07 323.525C1128.9 326.971 1133.09 328.694 1138.63 328.694C1143.3 328.694 1146.94 327.217 1149.52 324.263C1152.23 321.186 1153.58 316.509 1153.58 310.232V242.848H1111.12V220.14H1181.64ZM1241.57 351.217C1224.34 351.217 1211.54 345.432 1203.17 333.863C1194.93 322.171 1190.8 305.74 1190.8 284.571C1190.8 263.401 1194.93 247.032 1203.17 235.463C1211.54 223.771 1224.34 217.924 1241.57 217.924C1248.22 217.924 1254.06 218.847 1259.11 220.694C1264.28 222.417 1268.71 224.878 1272.4 228.078C1276.09 231.278 1279.11 235.155 1281.45 239.709C1283.91 244.263 1285.82 249.371 1287.17 255.032L1261.33 261.309C1260.59 258.232 1259.73 255.401 1258.74 252.817C1257.76 250.232 1256.46 248.017 1254.86 246.171C1253.39 244.324 1251.48 242.909 1249.14 241.924C1246.93 240.817 1244.22 240.263 1241.02 240.263C1233.51 240.263 1228.16 243.217 1224.96 249.124C1221.88 254.909 1220.34 262.971 1220.34 273.309V295.832C1220.34 306.171 1221.88 314.294 1224.96 320.201C1228.16 325.986 1233.51 328.878 1241.02 328.878C1247.42 328.878 1252.03 326.909 1254.86 322.971C1257.82 319.032 1259.97 313.986 1261.33 307.832L1287.17 314.109C1285.82 319.771 1283.91 324.878 1281.45 329.432C1279.11 333.986 1276.09 337.925 1272.4 341.248C1268.71 344.448 1264.28 346.909 1259.11 348.632C1254.06 350.355 1248.22 351.217 1241.57 351.217Z" fill="#013211"/>
<path d="M1346.74 326.455L1268.64 391.305L1353.07 449.553L1351.92 429.194L1358.06 429.423C1369.33 423.342 1392.73 405.815 1391.96 389.03C1391.2 372.246 1380.68 353.922 1375.52 346.859L1347.54 348.133L1346.74 326.455Z" fill="#0F7F67"/>
<path d="M1359.33 428.603C1359.33 428.603 1371.82 406.147 1368.38 383.173C1364.94 360.2 1352.95 348.146 1352.95 348.146L1377.99 346.969L1398.59 391.856L1376.64 421.033L1359.33 428.603Z" fill="#036357"/>
<path d="M1399.89 236.924L1332.16 280.676L1375.91 348.402C1375.91 348.402 1394.64 374.605 1388.75 395.207C1382.87 415.81 1356.99 429.62 1356.99 429.62C1356.99 429.62 1441.12 427.972 1443.67 428.215C1446.23 428.458 1466.88 417.698 1474.06 395.386C1481.25 373.074 1478.96 359.32 1477.55 357.137C1476.14 354.953 1399.89 236.924 1399.89 236.924Z" fill="#10AE5B"/>
<path d="M1444.86 428.197C1441.65 427.871 1401.38 428.687 1401.38 428.687C1401.38 428.687 1433.83 405.33 1439.28 385.189C1444.73 365.047 1441.19 338.001 1435.63 321.971C1430.08 305.941 1409.61 251.97 1409.61 251.97L1477.7 357.368C1480.43 361.601 1479.15 382.828 1473.61 398.404C1468.08 413.979 1448.07 428.522 1444.86 428.197Z" fill="url(#paint0_linear_16_310)"/>
<path d="M138.565 345.736L126.552 233.848L32.448 277.484L50.0557 288.673L46.5518 294.267C45.5507 308.44 47.5647 340.813 61.9806 350.211C76.3965 359.61 97.353 360.841 106.029 360.281L120.045 333.428L138.565 345.736Z" fill="#0F7F67"/>
<path d="M46.5525 295.946C46.5525 295.946 58.5565 321.121 79.5798 331.75C100.603 342.379 117.121 338.463 117.121 338.463L104.607 362.519L56.0538 354.687L43.54 316.645L46.5525 295.946Z" fill="#036357"/>
<path d="M184.616 449.232V359.721H104.528C104.528 359.721 72.5716 361.399 58.5561 343.497C44.5406 325.595 46.9643 293.147 46.9643 293.147C46.9643 293.147 2.99477 372.588 1.41398 374.826C-0.166808 377.064 -2.31741 402.798 12.4261 422.938C27.1697 443.078 39.8774 449.232 42.4593 449.232C45.0412 449.232 184.616 449.232 184.616 449.232Z" fill="#059F85"/>
<path d="M0.78978 375.945C2.79203 373.148 23.8152 335.106 23.8152 335.106C23.8152 335.106 25.8174 379.428 39.6839 396.645C53.5503 413.861 78.0239 426.855 94.3931 431.33C110.762 435.806 166.824 449.232 166.824 449.232H42.1866C37.1811 449.232 20.1623 435.246 10.1513 420.701C0.1402 406.155 -1.21247 378.743 0.78978 375.945Z" fill="url(#paint1_linear_16_310)"/>
<path d="M740.205 171.356L835.727 212.212L849.369 108.125L831.364 118.679L828.703 112.974C817.903 105.547 791.018 92.4217 776.088 100.953C761.157 109.485 749.377 127.618 745.354 135.618L759.573 160.502L740.205 171.356Z" fill="#13865B"/>
<path d="M827.362 112.201C827.362 112.201 801.078 111.308 781.76 125.168C762.442 139.028 757.059 155.573 757.059 155.573L744.3 133.318L775.567 93.6018L812.387 99.9711L827.362 112.201Z" fill="#0C6E59"/>
<path d="M633.847 164.741L705.313 206.001L746.574 134.536C746.574 134.536 761.697 105.246 783.211 100.992C804.725 96.7375 829.383 113.857 829.383 113.857C829.383 113.857 788.609 38.0025 787.637 35.5604C786.665 33.1183 767.226 19.3367 743.551 23.2093C719.875 27.0818 708.415 35.5847 707.085 37.8886C705.755 40.1925 633.847 164.741 633.847 164.741Z" fill="#1CB541"/>
<path d="M787.067 34.4881C788.269 37.5642 807.811 73.8598 807.811 73.8598C807.811 73.8598 771.392 55.2157 750.502 59.6532C729.613 64.0907 706.63 79.9399 694.624 92.4837C682.617 105.028 643.015 148.865 643.015 148.865L707.227 37.6457C709.806 33.1791 729.74 24.4396 746.511 22.2113C763.282 19.9829 785.865 31.412 787.067 34.4881Z" fill="url(#paint2_linear_16_310)"/>
<defs>
<linearGradient id="paint0_linear_16_310" x1="1457.57" y1="420.934" x2="1403.44" y2="282.353" gradientUnits="userSpaceOnUse">
<stop stop-color="#84D168"/>
<stop offset="1" stop-color="#10AE5B"/>
</linearGradient>
<linearGradient id="paint1_linear_16_310" x1="7.18954e-07" y1="392.169" x2="145.963" y2="418.805" gradientUnits="userSpaceOnUse">
<stop stop-color="#84D168"/>
<stop offset="1" stop-color="#059F85"/>
</linearGradient>
<linearGradient id="paint2_linear_16_310" x1="774.521" y1="26.3048" x2="673.568" y2="140.3" gradientUnits="userSpaceOnUse">
<stop stop-color="#84D168"/>
<stop offset="1" stop-color="#1CB541"/>
</linearGradient>
</defs>
</svg>
