<svg width="242" height="205" viewBox="0 0 242 205" fill="none" xmlns="http://www.w3.org/2000/svg">
<g clip-path="url(#clip0_29_6)">
<path d="M160.471 136.021C155.597 133.758 152.264 130.175 150.471 125.273C148.678 120.371 148.913 115.483 151.177 110.609C152.122 108.574 153.39 106.754 154.982 105.149C156.574 103.544 158.373 102.264 160.38 101.307L178.168 92.8672L177.613 73.6623L220.193 93.436L205.162 105.403L210.19 124.439C210.755 126.589 210.937 128.79 210.738 131.042C210.539 133.293 209.967 135.436 209.021 137.472C206.758 142.346 203.162 145.673 198.233 147.453C193.304 149.234 188.43 149.005 183.609 146.766L160.471 136.021ZM185.301 92.8592L200.566 99.9479L206.764 95.013L185.072 84.9396L185.301 92.8592ZM163.456 129.594L186.594 140.339C189.647 141.757 192.722 141.899 195.821 140.766C198.919 139.633 201.177 137.54 202.594 134.487C203.191 133.202 203.542 131.851 203.646 130.434C203.751 129.018 203.625 127.641 203.269 126.303L198.063 106.599L181.915 99.0998L163.458 107.718C162.207 108.309 161.068 109.115 160.04 110.135C159.013 111.156 158.201 112.309 157.604 113.594C156.186 116.647 156.044 119.722 157.177 122.82C158.31 125.919 160.403 128.176 163.456 129.594Z" fill="#1B601B"/>
</g>
<g clip-path="url(#clip1_29_6)">
<path d="M69.1589 142.176C66.2108 143.004 63.392 142.664 60.7025 141.155C58.013 139.645 56.254 137.416 55.4254 134.468L35.8403 64.7856L30.4801 66.2922L27.467 55.5718L54.268 48.039L52.7615 42.6788L84.9227 33.6396L86.4293 38.9998L113.23 31.4671L116.243 42.1875L110.883 43.694L130.468 113.377C131.297 116.325 130.957 119.144 129.447 121.833C127.938 124.523 125.709 126.282 122.761 127.11L69.1589 142.176ZM100.163 46.7071L46.5607 61.7725L66.1458 131.455L119.748 116.39L100.163 46.7071ZM73.8531 117.722L84.5735 114.709L71.0146 66.4668L60.2942 69.4799L73.8531 117.722ZM95.2939 111.696L106.014 108.682L92.4555 60.4406L81.735 63.4537L95.2939 111.696Z" fill="#1B601B"/>
</g>
<path d="M192.046 47.1725L181.374 34.1081C180.999 33.6482 180.554 33.2802 180.041 33.0043C179.528 32.7284 178.985 32.5615 178.41 32.5036L162.665 30.9161L166.545 27.7464L163.728 24.297L153.983 32.2566L161.943 42.001L165.392 39.1835L162.222 35.3029L177.89 36.8825L188.596 49.9901L192.046 47.1725Z" fill="#1B601B"/>
<path d="M102.508 162.754L116.561 172.087C117.055 172.415 117.588 172.635 118.16 172.748C118.731 172.86 119.3 172.859 119.866 172.745L135.379 169.614L132.607 173.788L136.317 176.252L143.278 165.77L132.796 158.81L130.332 162.52L134.506 165.292L119.071 168.407L104.972 159.044L102.508 162.754Z" fill="#1B601B"/>
<defs>
<clipPath id="clip0_29_6">
<rect width="85.037" height="85.037" fill="white" transform="translate(164.817 56) rotate(24.9096)"/>
</clipPath>
<clipPath id="clip1_29_6">
<rect width="133.63" height="133.63" fill="white" transform="translate(0 40.1571) rotate(-15.6986)"/>
</clipPath>
</defs>
</svg>
